<svg xmlns="http://www.w3.org/2000/svg" viewBox="0 0 1600 1200" role="img" aria-labelledby="title desc"><title id="title">Método do Zimbreiro</title><desc id="desc">Mockup visual do protocolo digital de 7 dias</desc><defs><linearGradient id="bg" x1="0" y1="0" x2="1" y2="1"><stop stop-color="#120b06"/><stop offset="0.55" stop-color="#2c170b"/><stop offset="1" stop-color="#0d0907"/></linearGradient><linearGradient id="gold" x1="0" y1="0" x2="1" y2="1"><stop stop-color="#f3cf76"/><stop offset="1" stop-color="#a66b18"/></linearGradient><filter id="shadow"><feDropShadow dx="0" dy="20" stdDeviation="24" flood-opacity=".45"/></filter></defs><rect width="1600" height="1200" rx="42" fill="url(#bg)"/><g opacity=".38"><circle cx="250" cy="830" r="170" fill="#9b4a16"/><path d="M130 950c45-210 145-310 265-300-55 45-78 105-85 180 58-60 117-82 176-69-83 62-122 124-134 189z" fill="#111"/></g><g filter="url(#shadow)"><rect x="270" y="55" width="470" height="1080" rx="80" fill="#0a0a0a" stroke="#5e4b3a" stroke-width="6"/><rect x="305" y="110" width="400" height="970" rx="50" fill="#111"/><rect x="430" y="78" width="150" height="28" rx="14" fill="#000"/><text x="505" y="300" fill="#eee4d2" font-family="Georgia,serif" font-size="55" text-anchor="middle">Método do</text><text x="505" y="370" fill="url(#gold)" font-family="Georgia,serif" font-size="70" font-weight="700" text-anchor="middle">Zimbreiro</text><text x="505" y="465" fill="#ddd0b7" font-family="Arial,sans-serif" font-size="38" text-anchor="middle">Fase 1</text><text x="505" y="520" fill="#e0b24e" font-family="Arial,sans-serif" font-size="36" font-weight="700" text-anchor="middle">Dia 1 de 7</text><circle cx="505" cy="680" r="105" fill="#2b180d" stroke="#b77a28" stroke-width="5"/><path d="M505 745v-125M505 650c-52-42-87-30-105-5 46-5 73 13 105 40M505 635c48-45 88-38 112-12-48 1-79 21-112 55" stroke="#c08a3a" stroke-width="12" fill="none" stroke-linecap="round"/><text x="505" y="845" fill="#d6b779" font-family="Georgia,serif" font-size="32" text-anchor="middle">A Sombra do Zimbreiro</text><rect x="365" y="920" width="280" height="88" rx="16" fill="url(#gold)"/><text x="505" y="978" fill="#211307" font-family="Georgia,serif" font-size="34" font-weight="700" text-anchor="middle">Continuar</text></g><g font-family="Georgia,serif" font-size="38" fill="#f4ead8"><g><rect x="820" y="165" width="550" height="145" rx="28" fill="#24170f" stroke="#8b6a46" stroke-width="4"/><text x="900" y="250" fill="#d6a74d" font-size="54">☘</text><text x="985" y="250">7 dias de protocolo</text></g><g><rect x="820" y="355" width="550" height="145" rx="28" fill="#24170f" stroke="#8b6a46" stroke-width="4"/><text x="900" y="445" fill="#d6a74d" font-size="54">▣</text><text x="985" y="445">Reflexões diárias</text></g><g><rect x="820" y="545" width="550" height="145" rx="28" fill="#24170f" stroke="#8b6a46" stroke-width="4"/><text x="900" y="635" fill="#d6a74d" font-size="54">♫</text><text x="985" y="635">Oração guiada</text></g><g><rect x="820" y="735" width="550" height="145" rx="28" fill="#24170f" stroke="#8b6a46" stroke-width="4"/><text x="900" y="825" fill="#d6a74d" font-size="54">✓</text><text x="985" y="825">Acesso imediato</text></g></g></svg>